<svg width="36px" height="36px" viewBox="0 0 36 36" fill="#ff4d4f" xmlns="http://www.w3.org/2000/svg" data-originalfillcolor="#000000" transform="rotate(0) scale(1, 1)">
<path d="M31.9256 12.412L22.9994 11.1147L19.0092 3.02527C18.9002 2.80379 18.7209 2.62449 18.4994 2.5155C17.944 2.24128 17.269 2.4698 16.9912 3.02527L13.001 11.1147L4.07483 12.412C3.82873 12.4471 3.60373 12.5632 3.43147 12.7389C3.22321 12.953 3.10845 13.241 3.1124 13.5396C3.11636 13.8382 3.23871 14.1231 3.45256 14.3315L9.91077 20.628L8.38498 29.519C8.3492 29.7258 8.37209 29.9386 8.45105 30.133C8.53001 30.3275 8.66188 30.496 8.83171 30.6193C9.00154 30.7427 9.20253 30.816 9.4119 30.8309C9.62126 30.8458 9.83062 30.8018 10.0162 30.7038L18.0002 26.5061L25.9842 30.7038C26.2022 30.8198 26.4553 30.8585 26.6979 30.8163C27.3096 30.7108 27.7209 30.1307 27.6155 29.519L26.0897 20.628L32.5479 14.3315C32.7237 14.1593 32.8397 13.9343 32.8748 13.6882C32.9697 13.0729 32.5408 12.5034 31.9256 12.412Z"/>
</svg>